<svg xmlns="http://www.w3.org/2000/svg" width="133.828" height="45.338" viewBox="0 0 133.828 45.338">
  <path id="Union_4" data-name="Union 4" d="M96.307,41.618V22.11a12.945,12.945,0,0,1,25.889.062h0a12.941,12.941,0,0,1-3.8,9.129,12.474,12.474,0,0,1-9.147,3.8q-4.9,0-7.438-2.248v8.764a2.764,2.764,0,0,1-2.719,2.719l-.068,0A2.765,2.765,0,0,1,96.307,41.618Zm18.2-14.248a7.463,7.463,0,0,0,.013-10.555h0a7.465,7.465,0,0,0-10.556-.014h0A7.464,7.464,0,0,0,109.25,29.55,7.168,7.168,0,0,0,114.509,27.37ZM67.147,24.7a12.931,12.931,0,1,1,25.636-2.4,2.7,2.7,0,0,1-2.742,2.72q-3.449-.035-9.071-.083-6.981-.057-8.2-.049.645,2.676,3.928,4.193a7.264,7.264,0,0,0,4.552.544,7.339,7.339,0,0,0,3.937-2.143,2.539,2.539,0,0,1,3.138-.58,2.6,2.6,0,0,1,1.531,2,2.555,2.555,0,0,1-.162,1.584,2.82,2.82,0,0,1-.567.8,12.392,12.392,0,0,1-6.825,3.679A12.931,12.931,0,0,1,67.147,24.7ZM73.11,19.13c-.014.03-.027.058-.04.088L73,19.361l13.771.148a6.336,6.336,0,0,0-3.822-3.946h0A7.4,7.4,0,0,0,73.11,19.13ZM41.382,24.25v-12.3A2.763,2.763,0,0,1,44.1,9.215h.067a2.763,2.763,0,0,1,2.72,2.74l0,12.29a5.36,5.36,0,0,0,5.359,5.361h0a5.359,5.359,0,0,0,5.36-5.36V11.954a2.763,2.763,0,0,1,2.741-2.74h.045a2.518,2.518,0,0,1,1.911.811,2.641,2.641,0,0,1,.811,1.933V24.25a10.866,10.866,0,0,1-21.732,0ZM33.267,35.11H33.2a2.61,2.61,0,0,1-1.91-.811,2.516,2.516,0,0,1-.809-1.911V2.719A2.723,2.723,0,0,1,33.2,0h.071a2.724,2.724,0,0,1,2.719,2.719V32.388a2.516,2.516,0,0,1-.811,1.911,2.609,2.609,0,0,1-1.891.811ZM12.946,35.1A12.944,12.944,0,0,1,0,22.16c0-.14,0-.278.006-.416H0V2.751a2.752,2.752,0,0,1,5.5,0v8.814a12.884,12.884,0,0,1,7.439-2.351h0a12.945,12.945,0,0,1,.035,25.89Zm0-20.368a7.423,7.423,0,1,0,0-.005Zm115.579,20.12a2.669,2.669,0,0,1-.868-.7,3.176,3.176,0,0,1-.811-2.221V9.1h5.507V31.938a3.469,3.469,0,0,1-.811,2.22,2.575,2.575,0,0,1-1.91.941h-.075v0A2.315,2.315,0,0,1,128.525,34.855ZM13.1,22.45v-5.3a5.3,5.3,0,0,1,5.3,5.3Zm113.5-16.214V0a6.23,6.23,0,0,1,6.236,6.236Z" transform="translate(0.5 0.5)" fill="#fff" stroke="rgba(0,0,0,0)" stroke-miterlimit="10" stroke-width="1"/>
</svg>
