<svg id="predictive" xmlns="http://www.w3.org/2000/svg" xmlns:xlink="http://www.w3.org/1999/xlink" width="96" height="96" viewBox="0 0 96 96">
  <defs>
    <linearGradient id="linear-gradient" x1="0.5" y1="1" x2="0.5" gradientUnits="objectBoundingBox">
      <stop offset="0" stop-color="#5558ff"/>
      <stop offset="1" stop-color="#00c0ff"/>
    </linearGradient>
  </defs>
  <g id="Group_141600" data-name="Group 141600">
    <path id="Path_166907" data-name="Path 166907" d="M93.188,90.375H84.563V87.563a2.813,2.813,0,0,0-5.625,0v2.813H67.688V87.563a2.813,2.813,0,0,0-5.625,0v2.813H50.813V87.563a2.813,2.813,0,0,0-5.625,0v2.813H33.938V87.563a2.813,2.813,0,0,0-5.625,0v2.813H11.25V73.5h3a2.813,2.813,0,0,0,0-5.625h-3V56.625h3a2.813,2.813,0,0,0,0-5.625h-3V39.75h3a2.813,2.813,0,0,0,0-5.625h-3V22.875h3a2.813,2.813,0,0,0,0-5.625h-3V2.813a2.813,2.813,0,0,0-5.625,0v8.813H2.813a2.813,2.813,0,0,0,0,5.625H5.625v5.625H2.813a2.813,2.813,0,0,0,0,5.625H5.625v5.625H2.813a2.813,2.813,0,0,0,0,5.625H5.625v5.625H2.813a2.813,2.813,0,0,0,0,5.625H5.625v5.625H2.813a2.813,2.813,0,0,0,0,5.625H5.625v5.625H2.813a2.813,2.813,0,0,0,0,5.625H5.625v5.625H2.813a2.813,2.813,0,0,0,0,5.625H5.625v5.625H2.813a2.813,2.813,0,0,0,0,5.625H93.188a2.813,2.813,0,0,0,0-5.625ZM48,62.25a8.438,8.438,0,1,0-8.437-8.437A8.447,8.447,0,0,0,48,62.25ZM48,51a2.813,2.813,0,1,1-2.812,2.813A2.816,2.816,0,0,1,48,51ZM31.125,79.125a8.438,8.438,0,1,0-8.437-8.437A8.447,8.447,0,0,0,31.125,79.125Zm0-11.25a2.813,2.813,0,1,1-2.812,2.813A2.816,2.816,0,0,1,31.125,67.875Zm14.063,2.813v5.625a2.813,2.813,0,0,0,5.625,0V70.688a2.813,2.813,0,0,0-5.625,0Zm19.688-2.812a2.813,2.813,0,0,0-2.812,2.813v5.625a2.813,2.813,0,0,0,5.625,0V70.688A2.813,2.813,0,0,0,64.875,67.875Zm2.813-14.062a2.813,2.813,0,0,0-5.625,0v5.625a2.813,2.813,0,0,0,5.625,0ZM81.75,67.875a2.813,2.813,0,0,0-2.812,2.813v5.625a2.813,2.813,0,0,0,5.625,0V70.688A2.813,2.813,0,0,0,81.75,67.875Zm2.813-14.062a2.813,2.813,0,0,0-5.625,0v5.625a2.813,2.813,0,0,0,5.625,0Zm0-16.875a2.813,2.813,0,0,0-5.625,0v5.625a2.813,2.813,0,0,0,5.625,0ZM81.75,28.5a8.438,8.438,0,1,0-8.437-8.437A8.447,8.447,0,0,0,81.75,28.5Zm0-11.25a2.813,2.813,0,1,1-2.812,2.813A2.816,2.816,0,0,1,81.75,17.25ZM64.875,45.375a8.438,8.438,0,1,0-8.437-8.437A8.447,8.447,0,0,0,64.875,45.375Zm0-11.25a2.813,2.813,0,1,1-2.812,2.813A2.816,2.816,0,0,1,64.875,34.125ZM25.5,56.625h5.625a2.813,2.813,0,0,0,0-5.625H25.5a2.813,2.813,0,0,0,0,5.625Zm0-16.875h5.625a2.813,2.813,0,0,0,0-5.625H25.5a2.813,2.813,0,0,0,0,5.625Zm16.875,0H48a2.813,2.813,0,0,0,0-5.625H42.375a2.813,2.813,0,0,0,0,5.625ZM25.5,22.875h5.625a2.813,2.813,0,0,0,0-5.625H25.5a2.813,2.813,0,0,0,0,5.625Zm16.875,0H48a2.813,2.813,0,0,0,0-5.625H42.375a2.813,2.813,0,0,0,0,5.625Zm16.875,0h5.625a2.813,2.813,0,0,0,0-5.625H59.25a2.813,2.813,0,0,0,0,5.625Z" fill="url(#linear-gradient)"/>
  </g>
</svg>
