<svg xmlns="http://www.w3.org/2000/svg" xmlns:xlink="http://www.w3.org/1999/xlink" width="96" height="96" viewBox="0 0 96 96">
  <defs>
    <linearGradient id="linear-gradient" x1="0.5" y1="1" x2="0.5" gradientUnits="objectBoundingBox">
      <stop offset="0" stop-color="#5558ff"/>
      <stop offset="1" stop-color="#00c0ff"/>
    </linearGradient>
  </defs>
  <g id="text-processing" transform="translate(-0.001)">
    <g id="Group_141601" data-name="Group 141601" transform="translate(0.001)">
      <path id="Path_166908" data-name="Path 166908" d="M95.7,1.548A2.812,2.812,0,0,0,93.188,0H2.813A2.812,2.812,0,0,0,.554,4.488L13.211,21.551a2.812,2.812,0,0,0,2.259,1.137H80.532a2.812,2.812,0,0,0,2.259-1.137L95.447,4.488a2.813,2.813,0,0,0,.253-2.94ZM79.117,17.063H16.885L8.4,5.625H87.6Zm-7.209,11.25H24.095A2.812,2.812,0,0,0,21.836,32.8L34.492,49.863A2.812,2.812,0,0,0,36.751,51h22.5a2.812,2.812,0,0,0,2.259-1.137L74.166,32.8a2.813,2.813,0,0,0-2.259-4.488ZM57.835,45.375H38.166L29.682,33.938H66.319Zm1.416,33.75h-22.5a2.813,2.813,0,0,0-2.813,2.813v11.25A2.813,2.813,0,0,0,36.751,96h22.5a2.813,2.813,0,0,0,2.813-2.813V81.938A2.813,2.813,0,0,0,59.251,79.125Zm-2.813,11.25H39.563V84.75H56.438Zm2.813-33.75h-22.5a2.813,2.813,0,0,0-2.813,2.813v11.25A2.813,2.813,0,0,0,36.751,73.5h22.5a2.813,2.813,0,0,0,2.813-2.813V59.438A2.813,2.813,0,0,0,59.251,56.625Zm-2.813,11.25H39.563V62.25H56.438Z" transform="translate(-0.001)" fill="url(#linear-gradient)"/>
    </g>
  </g>
</svg>
