<svg xmlns="http://www.w3.org/2000/svg" xmlns:xlink="http://www.w3.org/1999/xlink" width="96" height="96" viewBox="0 0 96 96">
  <defs>
    <linearGradient id="linear-gradient" x1="0.5" y1="1" x2="0.5" gradientUnits="objectBoundingBox">
      <stop offset="0" stop-color="#5558ff"/>
      <stop offset="1" stop-color="#00c0ff"/>
    </linearGradient>
  </defs>
  <g id="time-series" transform="translate(0 0.001)">
    <g id="Group_141602" data-name="Group 141602" transform="translate(0 -0.002)">
      <path id="Path_166909" data-name="Path 166909" d="M93.188,90.374H5.625V2.811A2.813,2.813,0,1,0,0,2.811V93.186A2.813,2.813,0,0,0,2.813,96H93.188a2.813,2.813,0,0,0,0-5.625Zm-73.5-5.812a8.451,8.451,0,0,0,7.954-5.625H58.085l-.824.824a2.812,2.812,0,0,0,3.977,3.977l5.625-5.625.015-.017a2.815,2.815,0,0,0-.015-3.961L61.239,68.51a2.812,2.812,0,0,0-3.977,3.977l.824.824H27.641a8.437,8.437,0,1,0-7.954,11.25Zm0-11.25a2.813,2.813,0,1,1-2.812,2.813A2.816,2.816,0,0,1,19.688,73.311Zm0-11.25a8.451,8.451,0,0,0,7.954-5.625H86.4l-.824.824a2.812,2.812,0,0,0,3.977,3.977l5.625-5.625a2.818,2.818,0,0,0,0-3.977L89.551,46.01a2.812,2.812,0,1,0-3.977,3.977l.824.824H27.641a8.437,8.437,0,1,0-7.954,11.25Zm0-11.25a2.813,2.813,0,1,1-2.812,2.813A2.816,2.816,0,0,1,19.688,50.811Zm0-11.25a8.451,8.451,0,0,0,7.954-5.625H58.085l-.824.824a2.812,2.812,0,0,0,3.977,3.977l5.625-5.625.015-.017a2.816,2.816,0,0,0-.015-3.961L61.239,23.51a2.812,2.812,0,0,0-3.977,3.977l.824.824H27.641a8.437,8.437,0,1,0-7.954,11.25Zm0-11.25a2.812,2.812,0,1,1-2.812,2.813A2.816,2.816,0,0,1,19.688,28.311Zm0-11.437a8.451,8.451,0,0,0,7.954-5.625H86.4l-.824.824a2.812,2.812,0,0,0,3.977,3.977l5.625-5.625.015-.017a2.815,2.815,0,0,0-.015-3.961L89.551.822A2.812,2.812,0,0,0,85.574,4.8l.824.824H27.641a8.437,8.437,0,1,0-7.954,11.25Zm0-11.25a2.812,2.812,0,1,1-2.812,2.812A2.816,2.816,0,0,1,19.688,5.624Z" transform="translate(0 0.002)" fill="url(#linear-gradient)"/>
    </g>
  </g>
</svg>
