<svg xmlns="http://www.w3.org/2000/svg" width="132.828" height="44.337" viewBox="0 0 132.828 44.337">
  <g id="Group_138797" data-name="Group 138797" transform="translate(-40.455 -36.731)">
    <g id="Group_138796" data-name="Group 138796" transform="translate(40.455 36.731)">
      <g id="Group_138267" data-name="Group 138267" transform="translate(0 0)">
        <path id="Path_12110" data-name="Path 12110" d="M102.259,36.731a2.724,2.724,0,0,1,2.719,2.719V69.119a2.518,2.518,0,0,1-.811,1.911,2.611,2.611,0,0,1-1.91.811h-.068a2.612,2.612,0,0,1-1.91-.811,2.519,2.519,0,0,1-.809-1.911V39.45a2.723,2.723,0,0,1,2.718-2.719Z" transform="translate(-68.99 -36.731)" fill="#fff"/>
        <path id="Path_12111" data-name="Path 12111" d="M126.083,69.6a5.361,5.361,0,0,0,5.359,5.362h0A5.36,5.36,0,0,0,136.8,69.6h0V57.31a2.764,2.764,0,0,1,2.74-2.74h.045a2.52,2.52,0,0,1,1.911.811,2.64,2.64,0,0,1,.811,1.933V69.607a10.866,10.866,0,1,1-21.732,0v-12.3a2.763,2.763,0,0,1,2.719-2.74h.068a2.763,2.763,0,0,1,2.719,2.74Z" transform="translate(-79.197 -45.356)" fill="#fff"/>
        <path id="Path_12112" data-name="Path 12112" d="M195.882,67.8a2.7,2.7,0,0,1-2.742,2.719q-3.449-.035-9.071-.083-6.982-.056-8.2-.049.645,2.675,3.928,4.193a7.269,7.269,0,0,0,4.553.544,7.343,7.343,0,0,0,3.936-2.143,2.539,2.539,0,0,1,3.139-.581,2.6,2.6,0,0,1,1.531,2,2.553,2.553,0,0,1-.162,1.584,2.821,2.821,0,0,1-.567.8,12.4,12.4,0,0,1-6.825,3.679A12.917,12.917,0,1,1,195.882,67.8Zm-9.826-6.745a7.405,7.405,0,0,0-9.846,3.567l-.04.088-.066.143L189.875,65a6.338,6.338,0,0,0-3.823-3.946Z" transform="translate(-103.1 -45.488)" fill="#fff"/>
        <path id="Path_12113" data-name="Path 12113" d="M229.645,89.678a2.763,2.763,0,0,1-2.719-2.719V67.451A12.945,12.945,0,0,1,239.9,54.538h0a12.944,12.944,0,0,1,12.913,12.976h0a12.942,12.942,0,0,1-3.8,9.129,12.473,12.473,0,0,1-9.147,3.8q-4.9,0-7.438-2.248v8.765a2.765,2.765,0,0,1-2.719,2.719Zm15.483-16.967a7.464,7.464,0,0,0,.013-10.556h0a7.465,7.465,0,0,0-10.556-.013h0a7.464,7.464,0,0,0,5.285,12.749A7.168,7.168,0,0,0,245.128,72.711Z" transform="translate(-130.619 -45.341)" fill="#fff"/>
        <path id="Path_12116" data-name="Path 12116" d="M51.253,70.708" transform="translate(-45.676 -53.16)" fill="#fff"/>
        <path id="Subtraction_1" data-name="Subtraction 1" d="M53.4,80.46A12.945,12.945,0,0,1,40.455,67.516h0A12.945,12.945,0,0,1,53.4,54.57h0A12.945,12.945,0,0,1,66.345,67.514h0A12.947,12.947,0,0,1,53.4,80.46Zm0-20.368a7.424,7.424,0,1,0,0-.005Z" transform="translate(-40.455 -45.357)" fill="#fff"/>
        <path id="Path_12117" data-name="Path 12117" d="M40.468,58.474A12.924,12.924,0,0,1,45.96,48.406V39.481a2.753,2.753,0,0,0-2.75-2.75h0a2.752,2.752,0,0,0-2.754,2.751h0V58.476Z" transform="translate(-40.455 -36.731)" fill="#fff"/>
        <path id="Subtraction_6" data-name="Subtraction 6" d="M71.112,75.236h-5.3v-5.3a5.3,5.3,0,0,1,5.3,5.3Z" transform="translate(-52.715 -52.786)" fill="#fff"/>
      </g>
      <g id="Group_138767" data-name="Group 138767" transform="translate(126.592)">
        <path id="Subtraction_9" data-name="Subtraction 9" d="M288.765,80.351a2.307,2.307,0,0,1-1.033-.246,2.652,2.652,0,0,1-.868-.7,3.172,3.172,0,0,1-.811-2.221V54.351h5.507V77.189a3.474,3.474,0,0,1-.811,2.22,2.577,2.577,0,0,1-1.91.941h-.075Z" transform="translate(-285.799 -45.251)" fill="#fff"/>
        <path id="Subtraction_8" data-name="Subtraction 8" d="M291.8,42.967h-6.236V36.731a6.231,6.231,0,0,1,6.236,6.236Z" transform="translate(-285.563 -36.731)" fill="#fff"/>
      </g>
    </g>
  </g>
</svg>
